<svg xmlns="http://www.w3.org/2000/svg" version="1.1" xmlns:xlink="http://www.w3.org/1999/xlink" xmlns:svgjs="http://svgjs.dev/svgjs" width="1440" height="560" preserveAspectRatio="none" viewBox="0 0 1440 560"><g mask="url(&quot;#SvgjsMask1014&quot;)" fill="none"><path d="M1167.1320729799695-73.5850741057262L1038.4085811079226-57.779816678328324 1054.2138385353205 70.94367519371853 1182.9373304073674 55.13841776632064z" fill="rgba(28, 142, 111, 0.44)" class="triangle-float1"></path><path d="M1150.4083133610513 145.76647076459903L995.7826425198251 162.0182836508083 1012.0344554060343 316.6439544920346 1166.6601262472607 300.39214160582526z" fill="rgba(28, 142, 111, 0.44)" class="triangle-float2"></path><path d="M720.07,723.272C767.185,725.097,806.316,688.926,827.706,646.907C847.164,608.685,839.916,565.059,819.93,527.11C798.144,485.743,766.805,443.846,720.07,442.532C671.748,441.173,630.858,477.603,609.984,521.205C591.631,559.541,605.632,601.771,625.966,639.094C647.546,678.705,674.996,721.526,720.07,723.272" fill="rgba(28, 142, 111, 0.44)" class="triangle-float3"></path><path d="M1281.481,377.693C1303.633,377.85,1322.626,362.733,1332.969,343.143C1342.639,324.828,1340.121,303.465,1330.296,285.233C1319.849,265.846,1303.501,247.937,1281.481,247.592C1259.009,247.24,1240.461,263.799,1229.94,283.659C1220.11,302.215,1221.15,324.007,1231.243,342.421C1241.784,361.652,1259.552,377.537,1281.481,377.693" fill="rgba(28, 142, 111, 0.44)" class="triangle-float3"></path><path d="M1194.7579766218257 435.0192059313614L1231.354223780859 322.3875385276081 1118.7225563771058 285.79129136857483 1082.1263092180725 398.4229587723281z" fill="rgba(28, 142, 111, 0.44)" class="triangle-float2"></path><path d="M557.997,260.442C571.842,259.861,585.509,255.613,593.149,244.052C601.642,231.201,604.359,214.763,597.195,201.126C589.559,186.592,574.371,175.936,557.997,177.139C543.017,178.24,535.188,193.244,527.651,206.236C520.073,219.299,509.961,234.053,517.338,247.231C524.799,260.559,542.736,261.082,557.997,260.442" fill="rgba(28, 142, 111, 0.44)" class="triangle-float1"></path></g><defs><mask id="SvgjsMask1014"><rect width="1440" height="560" fill="#ffffff"></rect></mask><style>
                @keyframes float1 {
                    0%{transform: translate(0, 0)}
                    50%{transform: translate(-10px, 0)}
                    100%{transform: translate(0, 0)}
                }

                .triangle-float1 {
                    animation: float1 5s infinite;
                }

                @keyframes float2 {
                    0%{transform: translate(0, 0)}
                    50%{transform: translate(-5px, -5px)}
                    100%{transform: translate(0, 0)}
                }

                .triangle-float2 {
                    animation: float2 4s infinite;
                }

                @keyframes float3 {
                    0%{transform: translate(0, 0)}
                    50%{transform: translate(0, -10px)}
                    100%{transform: translate(0, 0)}
                }

                .triangle-float3 {
                    animation: float3 6s infinite;
                }
            </style></defs></svg>